<?xml version="1.0" encoding="utf-8"?>
<!-- Generator: Adobe Illustrator 28.1.0, SVG Export Plug-In . SVG Version: 6.00 Build 0)  -->
<svg version="1.1" id="Layer_1" transform="scale(2)"
	 xmlns="http://www.w3.org/2000/svg" xmlns:xlink="http://www.w3.org/1999/xlink" x="0px" y="0px" viewBox="0 0 60 120"
	 style="enable-background:new 0 0 60 120;" xml:space="preserve">
<style type="text/css">
	.st0{opacity:0.15;fill:#838383;}
</style>
<path class="st0" d="M3.8,59.7c-0.6,0-1.2,0.1-1.9,0.3C0.6,60.4,0,61,0,61.9c0,0.8,0.4,1.7,1.2,2.5l2.5,2.5l2.5,2.5l2.5,2.5l2.5,2.5
	l2.5,2.5l2.5,2.5l2.5,2.5l2.5,2.5l2.5,2.5l2.5,2.5l2.5,2.5l2.5,2.5l2.5,2.5c0.8,0.8,1.9,1.4,3.2,1.9c1.2,0.4,2.5,0.4,3.8,0
	c1.2-0.4,2.3-1,3.2-1.9l2.5-2.5l2.5-2.5l2.5-2.5l2.5-2.5l2.5-2.5l2.5-2.5l1.2-1.2v-7.6l-1.2-1.2l-2.5-2.5l-2.5-2.5
	c-0.8-0.8-1.7-1.2-2.5-1.2s-1.7,0.4-2.5,1.2l-2.5,2.5l-2.5,2.5l-2.5,2.5l-2.5,2.5l-2.5,2.5l-2.5,2.5c-0.8,0.8-1.7,1.2-2.5,1.2
	c-0.9,0-1.6-0.4-2.5-1.2l-2.5-2.5l-2.5-2.5l-2.5-2.5l-2.5-2.5l-2.5-2.5l-2.5-2.5l-2.5-2.5l-2.5-2.5c-0.9-0.9-2-1.5-3.2-1.9
	C5.1,59.8,4.4,59.7,3.8,59.7z M60,61.5c0,0.1,0,0.2,0,0.4c0,0.2,0,0.3,0,0.5V61.5z M0,73.1v7.6l1.3-1.3c0.9-0.8,1.2-1.7,1.2-2.5
	s-0.4-1.7-1.2-2.5L0,73.1z M6.2,105.6c-0.8,0-1.7,0.4-2.5,1.2l-2.5,2.5C0.4,110.2,0,111,0,111.9s0.6,1.4,1.9,1.9
	c1.3,0.4,2.7,0.7,4.4,0.7c1.7,0,3.2-0.2,4.4-0.7c1.2-0.4,1.9-1.1,1.9-1.9s-0.4-1.7-1.2-2.5c-0.9-0.8-1.8-1.7-2.6-2.5
	S7.1,105.6,6.2,105.6z"/>
<path class="st0" d="M31.1,4.4c-1.5,0.1-3,0.2-4.3,0.7s-1.9,1.1-1.9,1.9s0.4,1.7,1.2,2.5l2.5,2.5c0.9,0.9,1.6,1.2,2.5,1.2
	s1.6-0.4,2.5-1.2l2.5-2.5c0.8-0.9,1.2-1.7,1.2-2.5S36.8,5.5,35.5,5C34.3,4.6,32.8,4.4,31.1,4.4z M8.7,24.7c-0.6,0-1.2,0.1-1.9,0.3
	c-1.2,0.4-2.3,1-3.2,1.9l-2.5,2.5L0,30.6v10l1.2-1.2l2.5-2.5c0.8-0.8,1.7-1.2,2.5-1.2s1.7,0.4,2.5,1.2l2.5,2.5l2.5,2.5l2.5,2.5
	l2.5,2.5l2.5,2.5l2.5,2.5c0.9,0.8,1.6,1.2,2.5,1.2s1.6-0.4,2.5-1.2l2.5-2.5c0.8-0.8,1.2-1.7,1.2-2.5s-0.4-1.7-1.2-2.5l-2.5-2.5
	l-2.5-2.5l-2.5-2.5l-2.5-2.5l-2.5-2.5l-2.5-2.5l-2.5-2.5c-0.9-0.9-2-1.5-3.1-1.9C10,24.8,9.4,24.7,8.7,24.7z M60,30.5l-1.3,1.4
	l-2.5,2.5l-2.5,2.5l-2.5,2.5l-2.5,2.5l-2.5,2.5l-2.5,2.5l-2.5,2.5l-2.5,2.5l-2.5,2.5c-0.8,0.8-1.2,1.7-1.2,2.5s0.7,1.5,1.9,1.9
	c1.3,0.5,2.5,0.5,3.8,0c1.2-0.4,2.3-1,3.2-1.9l2.5-2.5l2.5-2.5l2.5-2.5l2.5-2.5l2.5-2.5l2.5-2.5l1.2-1.2V30.5z M31.2,64.4
	c-1.6,0-3.1,0.2-4.4,0.7C25.6,65.5,25,66.1,25,67s0.4,1.7,1.2,2.5l2.5,2.5c0.9,0.8,1.6,1.2,2.5,1.2c0.8,0,1.7-0.4,2.5-1.2l2.5-2.5
	c0.8-0.8,1.2-1.7,1.2-2.5s-0.7-1.4-1.9-1.9C34.2,64.6,32.7,64.4,31.2,64.4z M8.7,84.7c-1.9,0.1-3.7,0.9-5,2.2l-2.5,2.5L0,90.6v10.1
	l1.2-1.2l2.5-2.5c0.8-0.8,1.7-1.2,2.5-1.2s1.7,0.4,2.5,1.2l2.5,2.5l2.5,2.5l2.5,2.5l2.5,2.5l2.5,2.5l2.5,2.5
	c0.9,0.8,1.6,1.2,2.5,1.2s1.6-0.4,2.5-1.2l2.5-2.5c0.8-0.8,1.2-1.7,1.2-2.5s-0.4-1.7-1.2-2.5l-2.5-2.5l-2.5-2.5l-2.5-2.5l-2.5-2.5
	l-2.5-2.5l-2.5-2.5l-2.5-2.5c-0.9-0.9-2-1.5-3.1-1.9C10,84.8,9.4,84.7,8.7,84.7z M60,90.5l-1.3,1.3l-2.5,2.5l-2.5,2.5l-2.5,2.5
	l-2.5,2.5l-2.5,2.5l-2.5,2.5l-2.5,2.5l-2.5,2.5l-2.5,2.5c-0.8,0.8-1.2,1.7-1.2,2.5s0.7,1.4,1.9,1.9c1.2,0.4,2.5,0.4,3.8,0
	c1.2-0.4,2.3-1,3.2-1.9l2.5-2.5l2.5-2.5l2.5-2.5l2.5-2.5l2.5-2.5l2.5-2.5l1.2-1.2V90.5z"/>
<path class="st0" d="M1.9,0C0.6,0.4,0,1.1,0,1.9s0.4,1.6,1.2,2.5l2.5,2.5l2.5,2.5l2.5,2.5l2.5,2.5l2.5,2.5l2.5,2.5l2.5,2.5l2.5,2.5
	l2.5,2.5l2.5,2.5l2.5,2.5l2.5,2.5l2.5,2.5c0.8,0.8,1.9,1.5,3.2,1.9c1.2,0.4,2.5,0.4,3.8,0c1.2-0.4,2.3-1,3.2-1.9l2.5-2.5l2.5-2.5
	l2.5-2.5l2.5-2.5l2.5-2.5l2.5-2.5l1.2-1.2v-7.6l-1.2-1.2l-2.5-2.5l-2.5-2.5c-0.8-0.8-1.7-1.2-2.5-1.2s-1.7,0.4-2.5,1.2l-2.5,2.5
	l-2.5,2.5l-2.5,2.5l-2.5,2.5l-2.5,2.5l-2.5,2.5c-0.8,0.9-1.7,1.2-2.5,1.2c-0.9,0-1.6-0.4-2.5-1.2l-2.5-2.5l-2.5-2.5l-2.5-2.5
	l-2.5-2.5l-2.5-2.5l-2.5-2.5l-2.5-2.5L8.8,1.9C7.9,1,6.8,0.4,5.7,0H1.9z M60,1.5c0,0.1,0,0.2,0,0.4s0,0.3,0,0.4V1.5z M0,13.1v7.6
	l1.3-1.3c0.9-0.9,1.2-1.6,1.2-2.5s-0.4-1.7-1.2-2.5L0,13.1z M6.2,45.7c-0.8,0-1.7,0.4-2.5,1.2l-2.5,2.5C0.4,50.2,0,51,0,51.9
	c0,0.8,0.6,1.5,1.9,1.9c1.3,0.4,2.7,0.7,4.4,0.7c1.7,0,3.2-0.2,4.4-0.7c1.2-0.4,1.9-1,1.9-1.9c0-0.8-0.4-1.7-1.2-2.5
	c-0.9-0.8-1.8-1.7-2.6-2.5S7.1,45.7,6.2,45.7z M3.8,119.7c-0.6,0-1.2,0.1-1.9,0.3h3.8C5.1,119.8,4.4,119.7,3.8,119.7z"/>
</svg>
