<?xml version="1.0" encoding="utf-8"?>
<!-- Generator: Adobe Illustrator 26.5.2, SVG Export Plug-In . SVG Version: 6.00 Build 0)  -->
<svg version="1.1" id="Layer_1" xmlns="http://www.w3.org/2000/svg" xmlns:xlink="http://www.w3.org/1999/xlink" x="0px" y="0px"
	 viewBox="0 0 32 32" style="enable-background:new 0 0 32 32;" xml:space="preserve">
<style type="text/css">
	.st0{fill:none;}
</style>
<g>
	<path class="st0" d="M16.2,0c-9.9,0.1-10,7.1-0.1,7.3C26,7.2,26.1,0.2,16.2,0z M14.1,6.5L9.9,4.3l10.2-2.7L14.1,6.5z"/>
	<path class="st0" d="M17.3,27.5C17.3,27.5,17.4,27.5,17.3,27.5c0.2,0,0.3,0,0.4,0c0,0,0.1,0,0.1,0c0.1,0,0.2,0,0.3,0
		c0.1,0,0.1,0,0.2,0c0.1,0,0.2,0,0.3,0c0.1,0,0.1,0,0.2,0c0.1,0,0.2,0,0.2-0.1c0.1,0,0.1,0,0.2,0c0.1,0,0.2,0,0.2-0.1
		c0.1,0,0.1,0,0.2,0c0.1,0,0.2-0.1,0.3-0.1c0,0,0.1,0,0.1,0c0.1,0,0.3-0.1,0.4-0.1c0,0,0,0,0,0c0.1,0,0.2-0.1,0.3-0.1
		c0,0,0.1,0,0.1-0.1c0.1,0,0.2-0.1,0.2-0.1c0,0,0.1,0,0.1-0.1c0.1,0,0.1-0.1,0.2-0.1c0,0,0.1-0.1,0.1-0.1c0.1,0,0.1-0.1,0.2-0.1
		c0,0,0.1-0.1,0.1-0.1c0.1,0,0.1-0.1,0.2-0.1c0,0,0.1-0.1,0.1-0.1c0.1-0.1,0.1-0.1,0.2-0.2c0,0,0.1-0.1,0.1-0.1
		c0.1-0.1,0.2-0.2,0.3-0.3c0.9-1,1.5-2.4,1.5-3.7c0,0,0,0,0-0.1c0,0,0,0,0,0c0,0,0,0,0,0c0,0,0,0,0-0.1c0,0,0,0,0,0c0,0,0,0,0-0.1
		c0,0,0,0,0-0.1c0,0,0,0,0-0.1c0,0,0,0,0,0c0-0.1,0-0.2,0-0.4c0,0,0,0,0,0c0-0.1,0-0.2,0-0.3c0,0,0,0,0,0c0-0.1,0-0.1,0-0.2
		c0,0,0,0,0,0c0-0.3,0-0.6,0-1l0,0c-0.2-4.4-0.5-13.1-0.6-14.6c-1,3.5-7.8,3.2-7.8,3.2c-6.7,0-7.5-3.3-7.5-3.3
		C8.4,6.2,7.9,14.3,7.7,19l0,0c0,0.1,0,0.1,0,0.2c0,0,0,0,0,0.1c0,0,0,0.1,0,0.1c0,0,0,0.1,0,0.1c0,0,0,0.1,0,0.1c0,0,0,0.1,0,0.1
		c0,0,0,0.1,0,0.1c0,0,0,0.1,0,0.1c0,0,0,0.1,0,0.1c0,0,0,0.1,0,0.1c0,0,0,0.1,0,0.1c0,0,0,0.1,0,0.1c0,0,0,0.1,0,0.1
		c0,0,0,0.1,0,0.1c0,0,0,0.1,0,0.1c0,0,0,0.1,0,0.1c0,0,0,0,0,0.1c0,0,0,0.1,0,0.1c0,0,0,0.1,0,0.1c0,0,0,0.1,0,0.1c0,0,0,0.1,0,0.1
		c0,0,0,0.1,0,0.1c0,0,0,0,0,0c0,0,0,0.1,0,0.1c0,0,0,0,0,0c0,0.1,0,0.3,0,0.4c0,0.1,0,0.4,0.1,0.7c0,0.1,0.1,0.3,0.2,0.5
		c0,0.1,0.1,0.2,0.2,0.3C8,23.8,8.2,24,8.3,24.2c0.3,0.4,0.6,0.8,1,1.2c0.1,0.1,0.1,0.1,0.2,0.2c0.5,0.4,1,0.8,1.6,0.9
		c0.2,0.1,0.4,0.1,0.6,0.2c0,0,0.1,0,0.1,0c0.2,0.1,0.4,0.1,0.5,0.2c0,0,0.1,0,0.1,0c0.2,0.1,0.4,0.1,0.6,0.1c0,0,0,0,0.1,0
		c0.2,0,0.4,0.1,0.6,0.1c0,0,0,0,0.1,0c0.2,0,0.4,0.1,0.6,0.1c0,0,0.1,0,0.1,0c0.2,0,0.4,0.1,0.6,0.1c0,0,0.1,0,0.1,0
		c0.2,0,0.4,0,0.6,0c0,0,0,0,0,0c0.2,0,0.4,0,0.6,0c0,0,0,0,0.1,0c0,0,0,0,0,0c0.1,0,0.2,0,0.3,0c0,0,0.1,0,0.1,0
		C17,27.5,17.2,27.5,17.3,27.5z"/>
	<path class="st0" d="M24.7,19.2c0,1.1,0.1,1.9,0.1,2.2c0,0,0,0,0,0c0,1.5-0.5,2.9-1.6,4c0,0,0,0,0,0c-1.7,1.6-4,2.4-6.8,2.4
		c-1.8,0-3.7-0.3-5.4-1c-1.5-0.5-2.5-1.7-3-2.5c-0.5-0.8-1-1.9-0.9-2.5c0-0.5,0.1-1.5,0.2-2.8c-0.6,0.5-1.6,1.7-1.6,3.5l0.2,3.2
		c0,0,0.9,6,10,6.2c0,0,8.9,0.3,10.1-5.9l0.3-3.3C26.3,22.8,26.5,21.1,24.7,19.2z"/>
</g>
</svg>
