<svg xmlns="http://www.w3.org/2000/svg" viewBox="0 0 320 88.26"><defs><style>.a{fill:#231f20;}</style></defs><title>LZX Industries Logo</title><path class="a" d="M109.57,34.39,125.48,6.68a4.55,4.55,0,0,0-4-6.68H107.16a4.51,4.51,0,0,0-3.9,2.25L97.28,13,94.35,7.86a15.75,15.75,0,0,0-2.61-3.3A15.83,15.83,0,0,0,83.12.21C82.45.1,80.72,0,80.54,0H31.11a4.53,4.53,0,0,0-4.53,4.52V14a4.53,4.53,0,0,0,4.53,4.52H51.44L32.73,50.31H22.58V4.53A4.53,4.53,0,0,0,18.06,0H4.53A4.54,4.54,0,0,0,0,4.53V53A16.09,16.09,0,0,0,16.07,68.8H87.23a4.55,4.55,0,0,0,3.85-2.15l6.2-10.83L114.64,86a4.49,4.49,0,0,0,3.61,2.23c.09,0,14.62,0,14.62,0a4.52,4.52,0,0,0,4.53-4.51,4.47,4.47,0,0,0-.55-2.16ZM76.4,50.31H57.92L70.66,28.75l5.93-10.12,8.78,15.76Z" transform="translate(0)"/><path class="a" d="M130.38,22.51a2.66,2.66,0,0,1,.79-2,2.63,2.63,0,0,1,1.91-.79,2.73,2.73,0,0,1,1.94.79,2.64,2.64,0,0,1,.81,2V42.68a2.68,2.68,0,0,1-.79,2,2.65,2.65,0,0,1-2,.78,2.71,2.71,0,0,1-2.7-2.75Z" transform="translate(0)"/><path class="a" d="M139.65,29.18a9.08,9.08,0,0,1,.74-3.64,9.6,9.6,0,0,1,5-5,9.43,9.43,0,0,1,7.37,0,9.53,9.53,0,0,1,3,2,9.86,9.86,0,0,1,2,3,9.08,9.08,0,0,1,.74,3.64v13.5a2.63,2.63,0,0,1-.82,2,2.66,2.66,0,0,1-1.93.78,2.6,2.6,0,0,1-1.92-.78,2.72,2.72,0,0,1-.79-2V29.18a3.63,3.63,0,0,0-.33-1.53A4.41,4.41,0,0,0,152,26.4a3.82,3.82,0,0,0-1.28-.83,4.1,4.1,0,0,0-4.4.83,3.74,3.74,0,0,0-1.18,2.78v13.5a2.66,2.66,0,0,1-.81,2,2.76,2.76,0,0,1-3.85,0,2.68,2.68,0,0,1-.79-2Z" transform="translate(0)"/><path class="a" d="M175.58,14.56a2.57,2.57,0,0,1,.81-2,2.76,2.76,0,0,1,3.87,0,2.57,2.57,0,0,1,.81,2V36a9.15,9.15,0,0,1-.73,3.65,9.61,9.61,0,0,1-2,3,9.35,9.35,0,0,1-6.7,2.77,9.21,9.21,0,0,1-3.69-.73,9.48,9.48,0,0,1-3-2,9.94,9.94,0,0,1-2-3,9.16,9.16,0,0,1-.74-3.65V29.18a9.08,9.08,0,0,1,.74-3.64,9.86,9.86,0,0,1,2-3,9.53,9.53,0,0,1,3-2,9.13,9.13,0,0,1,3.67-.75,7.38,7.38,0,0,1,2.06.29,13.21,13.21,0,0,1,1.92.68Zm-8,21.45a3.8,3.8,0,0,0,1.14,2.78,4.09,4.09,0,0,0,5.69,0A3.76,3.76,0,0,0,175.58,36V29.18a3.79,3.79,0,0,0-1.15-2.78,4.07,4.07,0,0,0-4.38-.83,3.59,3.59,0,0,0-1.27.83,4.07,4.07,0,0,0-.87,1.25,3.63,3.63,0,0,0-.33,1.53Z" transform="translate(0)"/><path class="a" d="M184.75,22.51a2.73,2.73,0,1,1,5.45,0V36a3.76,3.76,0,0,0,1.17,2.78,4,4,0,0,0,2.86,1.15,4,4,0,0,0,1.54-.31,3.8,3.8,0,0,0,1.28-.84,4.3,4.3,0,0,0,.87-1.26,3.55,3.55,0,0,0,.33-1.52V22.51A2.7,2.7,0,0,1,201,19.75a2.78,2.78,0,0,1,1.94.79,2.68,2.68,0,0,1,.81,2V36a9.17,9.17,0,0,1-.75,3.65,9.61,9.61,0,0,1-2,3,9.48,9.48,0,0,1-3,2,9.67,9.67,0,0,1-7.37,0,9.69,9.69,0,0,1-5-5,9.16,9.16,0,0,1-.74-3.65Z" transform="translate(0)"/><path class="a" d="M207.42,27.29A6.89,6.89,0,0,1,210,21.86a9.38,9.38,0,0,1,2.85-1.55,11.21,11.21,0,0,1,3.59-.56,12.09,12.09,0,0,1,3.06.51A11.44,11.44,0,0,1,222,21.49a6.22,6.22,0,0,1,2.2,2.34,2.92,2.92,0,0,1,.46,1.53,2.62,2.62,0,0,1-.76,1.91,2.54,2.54,0,0,1-1.9.79,2.93,2.93,0,0,1-1.16-.28,2.38,2.38,0,0,1-1-.84v0a4.93,4.93,0,0,0-1.48-1.32,4.14,4.14,0,0,0-2-.41,4.91,4.91,0,0,0-2.55.58,1.71,1.71,0,0,0-1,1.45,1.66,1.66,0,0,0,.94,1.64,6,6,0,0,0,2.57.46,12.45,12.45,0,0,1,3.66.51,8.69,8.69,0,0,1,3,1.52,7.26,7.26,0,0,1,2,2.5,7.58,7.58,0,0,1,.74,3.47,7.63,7.63,0,0,1-.77,3.54,7.22,7.22,0,0,1-2,2.49A9.22,9.22,0,0,1,220,44.93a13.66,13.66,0,0,1-3.7.5c-.28,0-.78,0-1.54-.12a9.72,9.72,0,0,1-2.49-.69,10.42,10.42,0,0,1-2.78-1.76,9.13,9.13,0,0,1-2.31-3.28,2.23,2.23,0,0,1-.2-1,2.67,2.67,0,0,1,.79-1.93,2.61,2.61,0,0,1,2-.81,2.5,2.5,0,0,1,1.54.48,2.87,2.87,0,0,1,1,1.2,3.7,3.7,0,0,0,1.73,1.81,5.33,5.33,0,0,0,2.45.64,6.84,6.84,0,0,0,2.83-.54,2.32,2.32,0,0,0,.05-4,6.89,6.89,0,0,0-2.88-.53,16.2,16.2,0,0,1-3.59-.38A7.49,7.49,0,0,1,210,33.2a5.68,5.68,0,0,1-1.86-2.31A8.7,8.7,0,0,1,207.42,27.29Z" transform="translate(0)"/><path class="a" d="M229.08,14.91a2.67,2.67,0,0,1,.79-2,2.61,2.61,0,0,1,1.91-.79,2.73,2.73,0,0,1,1.94.79,2.65,2.65,0,0,1,.81,2V20h8.2a2.73,2.73,0,1,1,0,5.45h-8.2V36a3.55,3.55,0,0,0,.33,1.52,4.49,4.49,0,0,0,.87,1.26,4,4,0,0,0,1.27.84,4.07,4.07,0,0,0,3.75-.33,3.87,3.87,0,0,0,1.52-1.81,3,3,0,0,1,1-1.2,2.52,2.52,0,0,1,1.54-.48,2.63,2.63,0,0,1,2,.81,2.71,2.71,0,0,1,.79,1.93,2.81,2.81,0,0,1-.26,1,9.2,9.2,0,0,1-2.49,3.48,11.19,11.19,0,0,1-2.86,1.74,8.28,8.28,0,0,1-2.35.59l-1,0a9.37,9.37,0,0,1-3.68-.73,9.48,9.48,0,0,1-3-2,9.61,9.61,0,0,1-2-3,9,9,0,0,1-.74-3.65Z" transform="translate(0)"/><path class="a" d="M251,22.71a2.64,2.64,0,0,1,.79-2,2.59,2.59,0,0,1,1.91-.79,2.72,2.72,0,0,1,2.14,1,9.69,9.69,0,0,1,4.79-1.22,16.7,16.7,0,0,1,3.08.56,6.58,6.58,0,0,1,2.12,1.13,2.47,2.47,0,0,1,1,2,2.66,2.66,0,0,1-.79,2,2.72,2.72,0,0,1-2,.77,2.85,2.85,0,0,1-1.64-.52,3.7,3.7,0,0,0-.92-.35,4.49,4.49,0,0,0-1-.1,3.89,3.89,0,0,0-2.81,1.09A4,4,0,0,0,256.44,29V42.68a2.72,2.72,0,0,1-.79,2,2.65,2.65,0,0,1-2,.78,2.59,2.59,0,0,1-1.88-.78,2.63,2.63,0,0,1-.82-2Z" transform="translate(0)"/><path class="a" d="M270.2,22.51a2.7,2.7,0,0,1,.79-2,2.62,2.62,0,0,1,1.9-.79,2.72,2.72,0,0,1,1.95.79,2.6,2.6,0,0,1,.81,2V42.68a2.68,2.68,0,0,1-.79,2,2.64,2.64,0,0,1-2,.78,2.57,2.57,0,0,1-1.87-.78,2.63,2.63,0,0,1-.82-2Z" transform="translate(0)"/><path class="a" d="M279.27,29.18a9.08,9.08,0,0,1,.74-3.64,9.22,9.22,0,0,1,2-3,9.4,9.4,0,0,1,3-2,9.38,9.38,0,0,1,7.35,0,9.43,9.43,0,0,1,3,2,9.54,9.54,0,0,1,2,3,9.08,9.08,0,0,1,.74,3.64V32.6a2.69,2.69,0,0,1-.79,2,2.64,2.64,0,0,1-1.91.79H284.77V36A3.76,3.76,0,0,0,286,38.79a3.87,3.87,0,0,0,2.8,1.15,7.8,7.8,0,0,0,1.4-.16,2.61,2.61,0,0,0,1.51-1,5.86,5.86,0,0,1,.75-.74,3.48,3.48,0,0,1,1-.58,2.75,2.75,0,0,1,1.15-.18,2.27,2.27,0,0,1,1.22.48,2.73,2.73,0,0,1,1.09,1.61,2.61,2.61,0,0,1-.53,2.21,11.75,11.75,0,0,1-2.9,2.68,8.26,8.26,0,0,1-4.69,1.19A9.53,9.53,0,0,1,280,39.66a9.16,9.16,0,0,1-.74-3.65Zm5.5.66h8v-.66a3.64,3.64,0,0,0-.34-1.53,4.41,4.41,0,0,0-.86-1.25,3.73,3.73,0,0,0-1.28-.83,3.94,3.94,0,0,0-5.53,3.61Z" transform="translate(0)"/><path class="a" d="M301.54,27.29a6.84,6.84,0,0,1,2.52-5.43,9.5,9.5,0,0,1,2.85-1.55,11.21,11.21,0,0,1,3.59-.56,12,12,0,0,1,3.06.51,11.51,11.51,0,0,1,2.6,1.23,6.2,6.2,0,0,1,2.19,2.34,2.93,2.93,0,0,1,.47,1.53,2.63,2.63,0,0,1-.77,1.91,2.51,2.51,0,0,1-1.89.79,2.93,2.93,0,0,1-1.17-.28,2.35,2.35,0,0,1-1-.84v0a4.81,4.81,0,0,0-1.48-1.32,4.19,4.19,0,0,0-2-.41,4.85,4.85,0,0,0-2.54.58,1.7,1.7,0,0,0-1,1.45,1.66,1.66,0,0,0,.94,1.64,6,6,0,0,0,2.57.46,12.64,12.64,0,0,1,3.68.51,8.68,8.68,0,0,1,3,1.52,7.26,7.26,0,0,1,2,2.5,7.58,7.58,0,0,1,.74,3.47,7.76,7.76,0,0,1-.76,3.54,7.14,7.14,0,0,1-2.06,2.49,9.13,9.13,0,0,1-3.06,1.51,13.55,13.55,0,0,1-3.7.5c-.27,0-.77,0-1.53-.12a9.61,9.61,0,0,1-2.49-.69,10.08,10.08,0,0,1-2.77-1.76,8.92,8.92,0,0,1-2.33-3.28,2.36,2.36,0,0,1-.2-1,2.71,2.71,0,0,1,.79-1.93,2.62,2.62,0,0,1,2-.81,2.47,2.47,0,0,1,1.53.48,2.79,2.79,0,0,1,1,1.2,3.72,3.72,0,0,0,1.74,1.81,5.29,5.29,0,0,0,2.44.64,6.77,6.77,0,0,0,2.83-.54,2,2,0,0,0,1.2-2,2,2,0,0,0-1.14-2,7,7,0,0,0-2.89-.53,16.2,16.2,0,0,1-3.59-.38,7.56,7.56,0,0,1-2.85-1.26,5.68,5.68,0,0,1-1.86-2.31A8.71,8.71,0,0,1,301.54,27.29Z" transform="translate(0)"/><path class="a" d="M133.12,17.83a3.86,3.86,0,0,1-2.7-1.13,3.75,3.75,0,0,1-1-2.62,3.7,3.7,0,0,1,1-2.63,3.87,3.87,0,0,1,5.33,0,3.81,3.81,0,0,1,1.12,2.63,3.86,3.86,0,0,1-1.12,2.62A3.59,3.59,0,0,1,133.12,17.83Z" transform="translate(0)"/><path class="a" d="M272.93,17.83a3.8,3.8,0,0,1-2.69-1.13,3.76,3.76,0,0,1-1.06-2.62,3.71,3.71,0,0,1,1.06-2.63,3.84,3.84,0,0,1,5.31,0,3.78,3.78,0,0,1,1.13,2.63,3.83,3.83,0,0,1-1.13,2.62A3.55,3.55,0,0,1,272.93,17.83Z" transform="translate(0)"/><path class="a" d="M320,56.49a20.53,20.53,0,0,0,0-2.22c-.28-3.5-3.94-3.89-3.94-3.89H130.34c-2.68,0-1.71,1.9-1.71,1.9l2.59,4.44,3.69,6.36.41.7c1.24,1.79,2.75,3.9,3.05,4.2a2.54,2.54,0,0,0,1.47.77H316s3.66-.39,3.94-3.89a20.54,20.54,0,0,0,0-2.22Z" transform="translate(0)"/></svg>