<?xml version="1.0" encoding="UTF-8"?>
<svg id="Layer_2" data-name="Layer 2" xmlns="http://www.w3.org/2000/svg" viewBox="0 0 62.93 8.82">
  <g id="Layer_1-2" data-name="Layer 1">
    <g>
      <path d="m0,6.69V1.68c0-.27.15-.42.42-.42h2.23c1.5,0,2.31.77,2.31,1.95s-.79,1.94-2.31,1.94h-1.07v1.53c0,.27-.15.42-.42.42H.42c-.27,0-.42-.15-.42-.42Zm2.64-2.74c.41,0,.72-.24.72-.69s-.31-.71-.72-.71h-1.05v1.4h1.05Z"/>
      <path d="m9.59,4.42v2.28c0,.27-.14.41-.41.41h-.37c-.26,0-.4-.15-.4-.41v-.04c-.38.34-.88.57-1.44.57-1.07,0-1.77-.58-1.77-1.43,0-.93.77-1.54,1.94-1.54.35,0,.7.08,1.03.19v-.16c0-.42-.3-.68-.82-.68-.44,0-.79.13-1.01.26-.2.11-.4.09-.52-.16l-.1-.21c-.15-.29-.08-.45.11-.57.44-.28,1.09-.44,1.63-.44,1.09,0,2.15.48,2.15,1.93Zm-1.4,1.3v-.37c-.17-.08-.49-.2-.81-.2-.44,0-.73.23-.73.57s.28.55.71.55c.49,0,.83-.31.83-.55Z"/>
      <path d="m13.8,6.91c-.28.2-.7.32-1.14.32-.9,0-1.76-.51-1.76-1.75v-1.78h-.4c-.27,0-.41-.15-.41-.41v-.31c0-.27.14-.41.41-.41h.4v-1.04c0-.26.15-.36.41-.41l.72-.13c.27-.05.41.14.41.41v1.18h.89c.26,0,.41.14.41.41v.31c0,.26-.15.41-.41.41h-.89v1.62c0,.44.23.58.5.58.14,0,.27-.06.37-.13.23-.14.33-.04.41.14l.25.58c.1.22-.06.32-.18.41Z"/>
      <path d="m14.22,4.86c0-1.37,1.04-2.37,2.46-2.37.77,0,1.35.28,1.78.7.12.13.19.27,0,.47l-.48.48c-.13.12-.26.17-.47-.02-.23-.21-.5-.3-.77-.3-.58,0-.98.44-.98,1.04s.4,1.04.98,1.04c.27,0,.54-.1.77-.31.21-.19.34-.14.47-.02l.48.48c.2.2.13.34,0,.47-.43.42-1.02.7-1.78.7-1.41,0-2.46-1-2.46-2.37Z"/>
      <path d="m23.82,4.46v2.24c0,.26-.14.41-.41.41h-.74c-.26,0-.41-.15-.41-.41v-2.12c0-.45-.27-.76-.72-.76s-.72.31-.72.76v2.12c0,.26-.15.41-.41.41h-.73c-.26,0-.41-.15-.41-.41V1.24c0-.26.14-.37.41-.41l.72-.14c.27-.04.42.14.42.41v1.77c.29-.23.66-.39,1.13-.39,1.1,0,1.87.77,1.87,1.96Z"/>
      <path d="m26.79,6.69V1.68c0-.27.15-.42.42-.42h2.22c1.9,0,3.08,1.17,3.08,2.92s-1.18,2.94-3.08,2.94h-2.22c-.27,0-.42-.15-.42-.42Zm2.58-.86c.9,0,1.54-.6,1.54-1.64s-.64-1.64-1.54-1.64h-1v3.28h1Z"/>
      <path d="m33.16.94c0-.52.42-.94.94-.94s.94.41.94.94-.41.94-.94.94-.94-.42-.94-.94Zm.15,5.76v-3.72c0-.26.14-.41.41-.41h.74c.26,0,.41.15.41.41v3.72c0,.26-.15.41-.41.41h-.74c-.27,0-.41-.15-.41-.41Z"/>
      <path d="m40.04,4.42v2.28c0,.27-.14.41-.41.41h-.37c-.26,0-.4-.15-.4-.41v-.04c-.38.34-.88.57-1.44.57-1.07,0-1.77-.58-1.77-1.43,0-.93.77-1.54,1.94-1.54.35,0,.7.08,1.03.19v-.16c0-.42-.3-.68-.82-.68-.44,0-.79.13-1.01.26-.2.11-.4.09-.52-.16l-.1-.21c-.15-.29-.08-.45.11-.57.44-.28,1.09-.44,1.63-.44,1.09,0,2.15.48,2.15,1.93Zm-1.4,1.3v-.37c-.17-.08-.49-.2-.81-.2-.44,0-.73.23-.73.57s.28.55.71.55c.49,0,.83-.31.83-.55Z"/>
      <path d="m45.55,2.98v3.56c0,1.53-1.11,2.28-2.54,2.28-.95,0-1.63-.33-2.06-.77-.14-.15-.2-.33-.02-.55l.25-.3c.14-.15.32-.2.54-.02.25.23.74.5,1.31.5s1.1-.26,1.1-.86v-.46c-.33.23-.75.36-1.21.36-1.21,0-2.12-.9-2.12-2.12s.92-2.12,2.13-2.12c.54,0,1.01.19,1.38.5h0c0-.27.14-.42.41-.42h.41c.26,0,.41.15.41.41Zm-1.31,1.64c0-.58-.4-.98-.95-.98s-.95.41-.95.97.4.98.95.98.95-.41.95-.97Z"/>
      <path d="m49.98,2.98l-.17.68c-.07.25-.23.31-.38.24-.14-.04-.32-.09-.47-.09-.53,0-.82.35-.82.88v2.01c0,.26-.14.41-.41.41h-.75c-.26,0-.41-.15-.41-.41v-3.72c0-.26.14-.41.41-.41h.48c.26,0,.41.15.41.41v.22c.31-.44.74-.7,1.23-.7.24,0,.46.04.65.1.15.05.3.13.23.39Z"/>
      <path d="m54.47,4.42v2.28c0,.27-.14.41-.41.41h-.37c-.26,0-.4-.15-.4-.41v-.04c-.38.34-.88.57-1.44.57-1.07,0-1.77-.58-1.77-1.43,0-.93.77-1.54,1.94-1.54.35,0,.7.08,1.03.19v-.16c0-.42-.3-.68-.82-.68-.44,0-.79.13-1.01.26-.2.11-.4.09-.52-.16l-.1-.21c-.15-.29-.08-.45.11-.57.44-.28,1.09-.44,1.63-.44,1.09,0,2.15.48,2.15,1.93Zm-1.4,1.3v-.37c-.17-.08-.49-.2-.81-.2-.44,0-.73.23-.73.57s.28.55.71.55c.49,0,.83-.31.83-.55Z"/>
      <path d="m62.93,4.46v2.24c0,.26-.14.41-.4.41h-.75c-.26,0-.4-.15-.4-.41v-2.12c0-.46-.25-.76-.68-.76s-.7.3-.7.76v2.12c0,.26-.14.41-.41.41h-.75c-.26,0-.41-.15-.41-.41v-2.12c0-.46-.25-.76-.68-.76s-.7.3-.7.76v2.12c0,.26-.14.41-.41.41h-.75c-.26,0-.41-.15-.41-.41v-3.72c0-.26.14-.41.41-.41h.48c.26,0,.41.15.41.41v.24c.3-.42.75-.73,1.4-.73.6,0,1.09.23,1.4.62.33-.37.83-.62,1.47-.62,1.12,0,1.89.77,1.89,1.96Z"/>
    </g>
  </g>
</svg>