<?xml version="1.0" encoding="UTF-8"?>
<!--
  Videomancy Web Campaign — Segment Icon: Live Performance
  Template: Editable placeholder — replace paths with final design
  Spec: 64×64, Moonwax #FCF3D0, abstract geometric waveform motif
  Copyright (C) 2026 LZX Industries LLC. All Rights Reserved.
-->
<svg xmlns="http://www.w3.org/2000/svg" viewBox="0 0 64 64" width="64" height="64">
  <defs>
    <linearGradient id="lp-grad" x1="0" y1="0" x2="64" y2="64" gradientUnits="userSpaceOnUse">
      <stop offset="0%" stop-color="#FCF3D0"/>
      <stop offset="100%" stop-color="#FCF3D0"/>
    </linearGradient>
  </defs>

  <!-- Background circle (optional, remove for transparent) -->
  <!-- <circle cx="32" cy="32" r="30" fill="#404040" opacity="0.3"/> -->

  <!-- Waveform motif — a stylized audio/video performance wave -->
  <g fill="none" stroke="url(#lp-grad)" stroke-width="2.5" stroke-linecap="round" stroke-linejoin="round">
    <!-- Central waveform (3 overlapping sine curves) -->
    <path d="M8 32 Q16 16 24 32 Q32 48 40 32 Q48 16 56 32" opacity="1"/>
    <path d="M8 32 Q16 22 24 32 Q32 42 40 32 Q48 22 56 32" opacity="0.5"/>

    <!-- Stage/monitor bracket -->
    <path d="M12 48 L12 44 L52 44 L52 48"/>

    <!-- Radiating lines from center (performance energy) -->
    <line x1="32" y1="8" x2="32" y2="14"/>
    <line x1="20" y1="12" x2="23" y2="17"/>
    <line x1="44" y1="12" x2="41" y2="17"/>
  </g>

  <!-- Diamond accent (matches ◈ Unicode placeholder) -->
  <path d="M32 20 L36 24 L32 28 L28 24 Z" fill="#FCF3D0" opacity="0.6"/>
</svg>
